HIERARCHY
ROOT joint_Root
{
	OFFSET 0.0 0.0 0.0
	CHANNELS 6 Xposition Yposition Zposition Zrotation Xrotation Yrotation 
	JOINT Hips
	{
		OFFSET -0.726466 93.3139 -2.00062
		CHANNELS 6 Xposition Yposition Zposition Zrotation Xrotation Yrotation 
		JOINT Spine
		{
			OFFSET 15.7357 0.0 0.0
			CHANNELS 6 Xposition Yposition Zposition Zrotation Xrotation Yrotation 
			JOINT Chest
			{
				OFFSET 8.98455 -0.406207 0.0
				CHANNELS 6 Xposition Yposition Zposition Zrotation Xrotation Yrotation 
				JOINT Neck
				{
					OFFSET 16.3773 0.0 0.0
					CHANNELS 6 Xposition Yposition Zposition Zrotation Xrotation Yrotation 
					JOINT Head
					{
						OFFSET 6.45672 0.0 0.0
						CHANNELS 6 Xposition Yposition Zposition Zrotation Xrotation Yrotation 
						End Site
						{
							OFFSET 0.0 0.0 0.0
						}
					}
				}
				JOINT Shoulder_L
				{
					OFFSET 12.9942 -0.242716 4.98039
					CHANNELS 6 Xposition Yposition Zposition Zrotation Xrotation Yrotation 
					JOINT UpperArm_L
					{
						OFFSET 5.34809 0.0 0.0
						CHANNELS 6 Xposition Yposition Zposition Zrotation Xrotation Yrotation 
						JOINT LowerArm_L
						{
							OFFSET 24.3286 1.87007e-05 0.0
							CHANNELS 6 Xposition Yposition Zposition Zrotation Xrotation Yrotation 
							JOINT Hand_L
							{
								OFFSET 22.2916 0.0 0.0
								CHANNELS 6 Xposition Yposition Zposition Zrotation Xrotation Yrotation 
								End Site
								{
									OFFSET 0.0 0.0 0.0
								}
							}
						}
					}
				}
				JOINT Shoulder_R
				{
					OFFSET 12.9945 -0.242716 -4.98039
					CHANNELS 6 Xposition Yposition Zposition Zrotation Xrotation Yrotation 
					JOINT UpperArm_R
					{
						OFFSET -5.34813 0.0 0.0
						CHANNELS 6 Xposition Yposition Zposition Zrotation Xrotation Yrotation 
						JOINT LowerArm_R
						{
							OFFSET -24.3289 0.000322201 0.0
							CHANNELS 6 Xposition Yposition Zposition Zrotation Xrotation Yrotation 
							JOINT Hand_R
							{
								OFFSET -22.2915 -0.000108084 0.0
								CHANNELS 6 Xposition Yposition Zposition Zrotation Xrotation Yrotation 
								End Site
								{
									OFFSET 0.0 0.0 0.0
								}
							}
						}
					}
				}
			}
		}
		JOINT UpperLeg_L
		{
			OFFSET -2.19248 -6.46944 0.0
			CHANNELS 6 Xposition Yposition Zposition Zrotation Xrotation Yrotation 
			JOINT LowerLeg_L
			{
				OFFSET 39.0811 0.0 -1.23785e-05
				CHANNELS 6 Xposition Yposition Zposition Zrotation Xrotation Yrotation 
				JOINT Foot_L
				{
					OFFSET 40.9854 0.0 -1.26872e-05
					CHANNELS 6 Xposition Yposition Zposition Zrotation Xrotation Yrotation 
					JOINT Toes_L
					{
						OFFSET 11.7543 0.0 0.0
						CHANNELS 6 Xposition Yposition Zposition Zrotation Xrotation Yrotation 
						End Site
						{
							OFFSET 0.0 0.0 0.0
						}
					}
				}
			}
		}
		JOINT UpperLeg_R
		{
			OFFSET -2.19251 6.46944 0.0
			CHANNELS 6 Xposition Yposition Zposition Zrotation Xrotation Yrotation 
			JOINT LowerLeg_R
			{
				OFFSET -39.0811 -0.00228153 -0.0401928
				CHANNELS 6 Xposition Yposition Zposition Zrotation Xrotation Yrotation 
				JOINT Foot_R
				{
					OFFSET -40.9854 0.0 0.0
					CHANNELS 6 Xposition Yposition Zposition Zrotation Xrotation Yrotation 
					JOINT Toes_R
					{
						OFFSET -11.7543 0.0 0.0
						CHANNELS 6 Xposition Yposition Zposition Zrotation Xrotation Yrotation 
						End Site
						{
							OFFSET 0.0 0.0 0.0
						}
					}
				}
			}
		}
	}
}
MOTION
Frames:	5
Frame Time:	0.0333333
0.000000 0.000000 0.000000 0.000000 0.000000 -0.000000 -0.571241 92.267100 -0.211934 88.132800 -0.202086 4.518430 15.735700 0.000005 -0.000001 83.740800 85.409400 -83.264800 8.984550 -0.406207 -0.000000 1.365090 -1.027100 0.963366 16.377300 -0.000001 -0.000001 1.677240 -2.907870 0.390981 6.456720 -0.000001 -0.000000 4.659690 -3.857290 -0.168181 12.994200 -0.242716 4.980390 -89.913100 -0.269718 -72.139500 5.348090 -0.000007 -0.000001 -66.499000 40.967100 -17.920400 24.328600 0.000019 0.000005 2.140400 5.110790 -22.756300 22.291600 -0.000001 0.000005 1.496480 5.442200 -4.362980 12.994500 -0.242716 -4.980390 88.261000 5.693060 -72.982900 -5.348130 -0.000001 -0.000004 -64.886800 39.647000 -17.085700 -24.328900 0.000322 -0.000009 4.075770 12.602600 -18.087100 -22.291500 -0.000108 -0.000004 3.955770 5.339730 -1.064190 -2.192480 -6.469440 -0.000000 -175.329000 -8.452800 -2.066640 39.081100 -0.000007 -0.000012 -0.109587 0.258329 22.987600 40.985400 -0.000006 -0.000013 0.008663 4.293270 -66.550700 11.754300 -0.000000 0.000003 -0.000045 -0.000515 -16.597600 -2.192510 6.469440 -0.000001 179.260000 15.614200 -179.063000 -39.081100 -0.002282 -0.040193 -0.052013 0.158226 19.276000 -40.985400 0.000008 0.000006 2.815610 7.884550 -66.004200 -11.754300 -0.000006 -0.000006 -0.008186 -0.089542 -20.219500
0.000000 0.000000 0.000000 0.000000 0.000000 -0.000000 -0.566965 92.264900 -0.265342 88.142600 -0.227760 4.563250 15.735700 0.000005 -0.000001 84.311200 85.412900 -83.855300 8.984550 -0.406207 -0.000000 1.367010 -0.934401 0.922253 16.377300 -0.000001 -0.000001 1.472810 -3.047730 0.411147 6.456720 -0.000001 -0.000000 4.732580 -4.130970 -0.046408 12.994200 -0.242716 4.980390 -89.925500 -0.230410 -72.087600 5.348090 -0.000007 -0.000001 -65.621600 38.809500 -19.539800 24.328600 0.000019 0.000005 3.251440 7.288750 -24.120300 22.291600 -0.000001 0.000005 -0.684492 5.443340 -4.400710 12.994500 -0.242716 -4.980390 88.261100 5.686400 -72.965100 -5.348130 -0.000001 -0.000004 -63.382500 38.300800 -18.496100 -24.328900 0.000322 -0.000009 5.645320 15.134000 -20.738800 -22.291500 -0.000108 -0.000004 -0.094206 5.325310 -0.644504 -2.192480 -6.469440 -0.000000 -175.341000 -8.465980 -2.082700 39.081100 -0.000007 -0.000012 -0.110285 0.259426 23.031100 40.985400 -0.000006 -0.000013 0.015018 4.279770 -66.532600 11.754300 -0.000000 0.000003 -0.000043 -0.000497 -16.596900 -2.192510 6.469440 -0.000001 179.271000 15.473700 -179.098000 -39.081100 -0.002282 -0.040193 -0.052166 0.158076 19.342300 -40.985400 0.000008 0.000006 2.765040 7.748870 -65.985500 -11.754300 -0.000006 -0.000006 -0.008515 -0.092188 -20.327600
0.000000 0.000000 0.000000 0.000000 0.000000 -0.000000 -0.568936 92.259800 -0.392647 88.162400 -0.108688 4.807470 15.735700 0.000005 -0.000001 84.328500 85.362300 -83.900300 8.984550 -0.406207 -0.000000 1.467790 -0.939698 0.867559 16.377300 -0.000001 -0.000001 1.585090 -3.092340 0.346236 6.456720 -0.000001 -0.000000 4.774210 -4.272120 0.158355 12.994200 -0.242716 4.980390 -90.000900 0.002703 -72.146900 5.348090 -0.000007 -0.000001 -62.670800 36.016600 -23.006600 24.328600 0.000019 0.000005 3.768250 7.483510 -26.826500 22.291600 -0.000001 0.000005 -0.974462 5.442680 -4.378100 12.994500 -0.242716 -4.980390 88.253400 5.660260 -72.820000 -5.348130 -0.000001 -0.000004 -60.772600 35.669000 -21.363200 -24.328900 0.000322 -0.000009 6.590670 14.955500 -24.124500 -22.291500 -0.000108 -0.000004 -2.118030 5.308740 -0.173785 -2.192480 -6.469440 -0.000000 -175.366000 -8.241730 -1.996400 39.081100 -0.000007 -0.000012 -0.108976 0.255137 23.128700 40.985400 -0.000006 -0.000013 0.012955 4.213650 -66.485000 11.754300 -0.000000 0.000003 -0.000048 -0.000549 -16.598900 -2.192510 6.469440 -0.000001 179.227000 15.422200 -179.008000 -39.081100 -0.002282 -0.040193 -0.052833 0.158591 19.498500 -40.985400 0.000008 0.000006 2.806980 7.583920 -65.990500 -11.754300 -0.000006 -0.000006 -0.008118 -0.088990 -20.197000
0.000000 0.000000 0.000000 0.000000 0.000000 -0.000000 -0.575984 92.242300 -0.542566 88.165700 -0.042082 5.117740 15.735700 0.000005 -0.000001 84.146000 85.326600 -83.741000 8.984550 -0.406207 -0.000000 1.535810 -0.974831 0.822319 16.377300 -0.000001 -0.000001 1.928420 -3.090030 0.341996 6.456720 -0.000001 -0.000000 5.187340 -4.167940 0.215819 12.994200 -0.242716 4.980390 -90.032400 0.101972 -72.351600 5.348090 -0.000007 -0.000001 -59.375600 31.297300 -27.236000 24.328600 0.000019 0.000005 4.515840 7.496350 -31.192700 22.291600 -0.000001 0.000005 0.733773 5.463950 -5.137550 12.994500 -0.242716 -4.980390 88.298200 5.485500 -72.734800 -5.348130 -0.000001 -0.000004 -58.012400 31.035900 -25.232700 -24.328900 0.000322 -0.000009 7.131240 13.462800 -28.258800 -22.291500 -0.000108 -0.000004 -0.678715 5.303150 -0.015340 -2.192480 -6.469440 -0.000000 -175.325000 -8.287250 -1.899780 39.081100 -0.000007 -0.000012 -0.109101 0.252922 23.333600 40.985400 -0.000006 -0.000013 0.052688 4.331050 -66.478000 11.754300 -0.000000 0.000003 -0.000045 -0.000519 -16.597700 -2.192510 6.469440 -0.000001 179.134000 15.472400 -178.893000 -39.081100 -0.002282 -0.040193 -0.059302 0.175001 19.689700 -40.985400 0.000008 0.000006 2.548970 7.606980 -65.934500 -11.754300 -0.000006 -0.000006 -0.007946 -0.087593 -20.139900
0.000000 0.000000 0.000000 0.000000 0.000000 -0.000000 -0.555044 92.227300 -0.677617 88.162800 -0.058207 5.521340 15.735700 0.000005 -0.000001 83.879200 85.307700 -83.463300 8.984550 -0.406207 -0.000000 1.569230 -1.022590 0.844990 16.377300 -0.000001 -0.000001 2.410450 -2.963110 0.238968 6.456720 -0.000001 -0.000000 5.955880 -3.905690 0.172393 12.994200 -0.242716 4.980390 -90.033200 0.106026 -72.639000 5.348090 -0.000007 -0.000001 -56.369700 25.133500 -31.709800 24.328600 0.000019 0.000005 4.499920 5.965090 -37.143900 22.291600 -0.000001 0.000005 2.887830 5.491600 -6.194180 12.994500 -0.242716 -4.980390 88.322400 5.343290 -72.541100 -5.348130 -0.000001 -0.000004 -54.805900 25.342900 -30.168400 -24.328900 0.000322 -0.000009 8.076690 12.188800 -33.911400 -22.291500 -0.000108 -0.000004 1.706720 5.298640 0.110139 -2.192480 -6.469440 -0.000000 -175.252000 -8.400060 -1.662090 39.081100 -0.000007 -0.000012 -0.110140 0.253279 23.502100 40.985400 -0.000006 -0.000013 0.101128 4.485850 -66.476100 11.754300 -0.000000 0.000003 -0.000042 -0.000491 -16.596700 -2.192510 6.469440 -0.000001 179.010000 15.470600 -178.637000 -39.081100 -0.002282 -0.040193 -0.064783 0.188695 19.845700 -40.985400 0.000008 0.000006 2.381120 7.660400 -65.899400 -11.754300 -0.000006 -0.000006 -0.008025 -0.088239 -20.166300
